<svg width="153" height="35" viewBox="0 0 153 35" fill="none" xmlns="http://www.w3.org/2000/svg">
<path d="M24.7468 26.2571L31.8357 6.15033H28.1409L23.0712 21.6171H22.9853L17.486 6.15033H14.5215L9.02226 21.66H8.93634L3.90965 6.15033H0L7.08892 26.2571H10.6549L15.8964 11.5207H15.9823L21.1808 26.2571H24.7468Z" fill="white"/>
<path d="M53.8808 17.4067V15.3874C53.8808 9.54442 49.8853 5.7207 43.6986 5.7207C37.5548 5.7207 33.2156 10.06 33.2156 16.2037C33.2156 22.5193 37.8126 26.6867 44.9015 26.6867C48.0379 26.6867 50.7875 25.8275 52.5919 24.3667V20.6719H52.4201C50.5297 22.4763 47.9519 23.4215 44.9875 23.4215C40.4334 23.4215 37.4259 21.1445 36.9104 17.4067H53.8808ZM43.7415 8.9859C47.3934 8.9859 49.9712 11.0911 50.4868 14.3563H36.9104C37.5978 11.1341 40.3045 8.9859 43.7415 8.9859Z" fill="white"/>
<path d="M78.0587 26.2571V6.15033H74.9653L74.8365 9.37257H74.7505C73.2468 7.09552 70.4972 5.7207 66.9742 5.7207C61.1312 5.7207 56.9208 10.1029 56.9208 16.2037C56.9208 22.3045 61.1312 26.6867 66.9742 26.6867C70.4972 26.6867 73.2468 25.3119 74.7505 23.0778H74.8365L74.9653 26.2571H78.0587ZM67.5757 23.4215C63.4512 23.4215 60.6157 20.4571 60.6157 16.2037C60.6157 11.9504 63.4512 8.9859 67.5757 8.9859C71.6572 8.9859 74.5357 11.9504 74.5357 16.2037C74.5357 20.4571 71.6572 23.4215 67.5757 23.4215Z" fill="white"/>
<path d="M94.7606 5.7207C91.2376 5.7207 88.531 7.09553 86.9843 9.32961H86.8984L86.8124 6.15033H83.7191V34.4201H87.371V23.6793H87.4569C89.0465 25.5697 91.5384 26.6867 94.7606 26.6867C100.604 26.6867 104.857 22.3045 104.857 16.2037C104.857 10.1029 100.604 5.7207 94.7606 5.7207ZM94.2021 23.4215C90.0776 23.4215 87.2421 20.4571 87.2421 16.2037C87.2421 11.9504 90.0776 8.9859 94.2021 8.9859C98.2836 8.9859 101.162 11.9504 101.162 16.2037C101.162 20.4571 98.2836 23.4215 94.2021 23.4215Z" fill="white"/>
<path d="M118.594 5.7207C112.365 5.7207 107.94 10.06 107.94 16.2037C107.94 22.3474 112.365 26.6867 118.594 26.6867C124.824 26.6867 129.249 22.3474 129.249 16.2037C129.249 10.06 124.824 5.7207 118.594 5.7207ZM118.594 8.9859C122.676 8.9859 125.554 11.9504 125.554 16.2037C125.554 20.4571 122.676 23.4215 118.594 23.4215C114.47 23.4215 111.634 20.4571 111.634 16.2037C111.634 11.9504 114.47 8.9859 118.594 8.9859Z" fill="white"/>
<path d="M144.13 5.7207C140.736 5.7207 138.287 7.05256 136.912 9.32961H136.826L136.74 6.15033H133.647V26.2571H137.299V15.817C137.299 11.5637 139.533 8.9859 143.271 8.9859C146.665 8.9859 148.727 11.22 148.727 15.0007V26.2571H152.379V14.5711C152.379 9.07183 149.243 5.7207 144.13 5.7207Z" fill="white"/>
<path d="M12.7842 0H80.8092V33.4158H22.3315L12.7842 0Z" fill="#2D3135" fill-opacity="0.5"/>
<path d="M107.064 0H130.933V33.4158H107.064V0Z" fill="#2D3135" fill-opacity="0.5"/>
</svg>
